<svg xmlns="http://www.w3.org/2000/svg" width="578" height="462"><defs><style>.f{fill:none}.c{fill:#fff}.d{fill:#29303e}.e{stroke:none}</style></defs><g style="stroke-linecap:round;stroke-linejoin:round;stroke-width:2px;stroke-dasharray:14 14.5;stroke:#475061;fill:none"><path class="e" d="M405 62h21a152 152 0 0 1 152 152v21a152 152 0 0 1-152 152H253V214A152 152 0 0 1 405 62z"/><path class="f" d="M405 63h21a151 151 0 0 1 151 151v21a151 151 0 0 1-151 151H255a1 1 0 0 1-1-1V214A151 151 0 0 1 405 63z"/></g><g style="stroke:#fff;stroke-linecap:round;stroke-linejoin:round;stroke-width:2px;stroke-dasharray:14 14.5;fill:none"><path class="e" d="M116 230h116v116a116 116 0 0 1-116 116A116 116 0 0 1 0 346a116 116 0 0 1 116-116z"/><path class="f" d="M116 231h114.238a.762.762 0 0 1 .762.762V346a115 115 0 0 1-115 115h0A115 115 0 0 1 1 346h0a115 115 0 0 1 115-115z"/></g><path class="c" d="M229.5 0A99.5 99.5 0 0 1 329 99.5V199h-99.5A99.5 99.5 0 0 1 130 99.5 99.5 99.5 0 0 1 229.5 0zM411.813 214.49l82.539-22.479 8.078-44.606-87.1 37.933a95.993 95.993 0 0 1-38.284 8.078h-10.542l-10.537 24.589h30.908a99.382 99.382 0 0 0 24.938-3.515zM342.62 249.613h60.411l80.432 4.215 8.078-44.255-82.89 15.1a91.049 91.049 0 0 1-16.859 1.4h-39.338zM391.441 257.691h-52.333l-10.537 24.586h55.143a145.449 145.449 0 0 1 42.85 6.322l47.065 14.4 5.62-31.962-63.924-11.239a134.23 134.23 0 0 0-23.884-2.107z"/><path class="d" d="M539.218 376.918c0-12.8-9.412-23.089-21.041-23.089-15.753-.739-31.818-1.023-48.225-1.023h-5.118c-16.378 0-32.472.284-48.224 1.024-11.602 0-21.01 10.35-21.01 23.145-.714 10.123-1.027 20.245-1 30.368q-.043 15.184.967 30.4c0 12.8 9.412 23.174 21.013 23.174 16.549.768 33.524 1.109 50.784 1.08q25.932.085 50.784-1.08c11.63 0 21.041-10.379 21.041-23.174.682-10.151 1-20.274.967-30.425q.086-15.187-.938-30.4zm-85.758 58.319v-55.873l41.23 27.922z"/><g><path class="d" d="M86.291 83.91c2.077-3.129 3.779-6.6 6.3-9.323 8-8.627 16.27-16.995 24.486-25.414 4.3-4.407 9.665-4.758 13.873-1.048a10.424 10.424 0 0 1 .72 14.82c-6.734 7.287-13.72 14.342-21.072 21.986 6.832 7.1 13.523 14.128 20.3 21.07 3.194 3.27 4.73 7.343 2.748 11.253a13.373 13.373 0 0 1-7.414 6.4c-2.5.682-6.615-.63-8.577-2.539-9.631-9.375-18.854-19.176-28.033-29-1.574-1.686-2.241-4.222-3.329-6.365zM255.547 85.747c-2.035 3.146-3.68 6.656-6.184 9.374-8.09 8.783-16.417 17.353-24.812 25.846-4.056 4.1-9.127 4.326-13.27 1.081a10.456 10.456 0 0 1-2.458-13.269 17.034 17.034 0 0 1 2.61-3.163c6.443-6.75 12.912-13.475 19.722-20.573-2.484-2.661-4.82-5.212-7.207-7.713-4.653-4.872-9.481-9.587-13.963-14.611a10.393 10.393 0 0 1 .819-14.5c4.161-3.787 9.606-3.5 13.895.889 8.239 8.431 16.525 16.82 24.537 25.464 2.523 2.724 4.229 6.2 6.31 9.339zM144.163 136.556a32.072 32.072 0 0 1 1.027-5.49q17.178-51.314 34.504-102.582c1.939-5.75 6.875-8.48 12.105-6.908s8.111 7.184 6.249 12.931c-4.67 14.397-9.512 28.737-14.343 43.083q-10.242 30.427-20.573 60.82c-1.779 5.236-5.428 7.716-10.293 7.248-4.245-.407-7.562-3.502-8.676-9.102z"/></g></svg>