<svg version="1.2" baseProfile="tiny-ps" xmlns="http://www.w3.org/2000/svg" width="33" height="30"><style>.shp0{fill:#fff}</style><g id="Layer"><path id="Layer" class="shp0" d="m15.81 12.74 15.68-4.27L33.02 0 16.48 7.2c-.57.25-1.16.47-1.75.66-.6.19-1.2.36-1.81.48-.61.13-1.23.23-1.85.3-.62.06-1.24.1-1.87.1h-2l-2 4.67h5.87c.4-.01.8-.02 1.2-.05.4-.04.8-.08 1.19-.13.4-.06.79-.13 1.18-.21.4-.08.78-.17 1.17-.28zM2.67 19.41h11.47l15.28.8 1.53-8.4-15.74 2.87-.8.12c-.26.03-.53.06-.79.08-.27.03-.54.04-.81.05-.27.01-.53.02-.8.01H4.54l-1.87 4.47zM11.94 20.95H2l-2 4.67h10.47c.69-.01 1.38.02 2.07.07.68.05 1.37.12 2.05.22a27.789 27.789 0 0 1 4.02.91l8.94 2.73 1.07-6.07-12.14-2.13a22.1 22.1 0 0 0-2.26-.3c-.38-.04-.76-.06-1.14-.08-.38-.02-.76-.02-1.14-.02z"/></g></svg>