<svg version="1.2" baseProfile="tiny-ps" xmlns="http://www.w3.org/2000/svg" width="130" height="30"><style>.shp0{fill:#8b96ab}</style><g id="Layer"><g id="Layer"><g id="Layer"><path id="Layer" fill-rule="evenodd" class="shp0" d="M36.16 23.61h5.2c.06-.01.13-.02.18-.04.06-.03.12-.06.17-.1.05-.04.09-.09.12-.15s.05-.12.06-.18l.47-2.47h-2.67c-.2 0-.4-.02-.6-.07-.2-.04-.39-.11-.58-.2-.18-.08-.35-.19-.51-.31-.17-.12-.31-.26-.44-.42-.13-.15-.25-.31-.34-.48-.09-.18-.16-.36-.22-.55-.05-.19-.08-.38-.09-.58 0-.2.01-.39.05-.59l1.26-6.8c.06-.31.18-.6.34-.87.16-.27.36-.51.6-.71.24-.2.52-.35.81-.46.3-.1.61-.16.92-.16h2.87c.2 0 .41.03.6.07.2.05.39.11.58.2.18.09.36.19.52.31.16.13.3.27.44.42.13.15.24.31.33.49.09.17.17.35.22.54.05.19.08.39.09.58.01.2-.01.4-.04.59l-2.14 11.61c-.06.31-.17.61-.33.87-.16.27-.37.51-.61.71-.24.2-.51.36-.81.46-.29.11-.6.16-.92.16h-5.87l.34-1.87zm7.96-12.81c.01-.05 0-.1-.01-.15a.31.31 0 0 0-.06-.13c-.02-.05-.06-.08-.09-.12-.03-.02-.06-.05-.09-.07a.55.55 0 0 0-.09-.07c-.04-.01-.07-.03-.11-.04-.04-.01-.07-.01-.11-.02h-2.4c-.07.01-.13.02-.19.04-.06.03-.11.06-.16.1-.05.05-.09.1-.12.15a.67.67 0 0 0-.07.18l-1.33 7.4v.13l.03.12c.01.04.02.08.04.11.02.04.04.08.06.11.03.03.06.06.09.08l.09.06c.04.02.07.03.11.04.04.01.07.02.11.02h2.88l1.39-7.8c.02-.05.03-.09.03-.14z"/><path id="Layer" class="shp0" d="M81.39 9.34c-.14-.16-.28-.3-.44-.42-.16-.12-.34-.23-.52-.31-.19-.09-.38-.16-.58-.2-.19-.05-.4-.07-.6-.07h-2.87c-.31 0-.62.05-.92.16-.29.1-.57.26-.81.46-.24.2-.44.44-.6.71-.16.27-.28.56-.34.87l-1.8 10.01h2.4l1.8-9.88c.01-.06.04-.12.07-.18.03-.05.07-.1.12-.15.05-.04.1-.07.16-.1.06-.02.12-.03.19-.03h2.4c.04 0 .07 0 .11.01.04.01.07.03.11.04.03.02.06.04.09.07.03.02.06.05.09.07.02.04.05.07.06.11.02.04.04.08.05.12.01.04.02.08.02.12.01.04 0 .08 0 .12l-1.73 9.68h2.4l1.6-9.01c.07-.19.11-.38.13-.58.01-.2 0-.39-.04-.59-.05-.19-.11-.38-.21-.55-.09-.18-.21-.34-.34-.48zM59.91 8.41c-.32 0-.63.05-.92.15-.3.11-.57.27-.81.47-.24.2-.45.43-.61.7-.16.27-.27.57-.33.88l-1.8 10h2.4l1.8-9.94c.01-.06.03-.12.06-.18.03-.05.07-.1.12-.14.05-.05.1-.08.16-.1.06-.03.13-.04.19-.04h3.2l.33-1.94-3.8.13.01.01z"/><path id="Layer" fill-rule="evenodd" class="shp0" d="M55.3 9.34c.13.15.24.31.33.49.09.17.16.35.21.54a2.912 2.912 0 0 1 .06 1.17l-.53 2.86c-.06.31-.17.61-.33.88-.16.26-.37.5-.61.7-.24.2-.52.36-.81.46-.3.11-.61.16-.92.16h-3.67l-.27 1.4v.13c.01.04.01.08.03.12.01.04.02.08.04.12.02.03.04.07.07.1.02.03.05.06.08.08.03.02.06.04.1.06.03.02.07.03.1.04.04.01.08.02.12.02h4.93l-.33 1.87h-4.8c-.2 0-.41-.03-.6-.07-.2-.05-.39-.11-.58-.2-.18-.08-.36-.19-.52-.31-.16-.13-.3-.27-.44-.42-.13-.15-.24-.31-.33-.49a2.55 2.55 0 0 1-.22-.54c-.05-.19-.08-.39-.09-.58-.01-.2.01-.4.04-.59l1.27-6.8a2.7 2.7 0 0 1 .94-1.58c.24-.2.52-.36.81-.46.3-.11.61-.16.92-.16h2.87c.2 0 .4.02.6.07.2.04.39.11.57.2.19.08.36.19.52.31.16.12.31.26.44.42zm-1.77 1.46c.01-.05 0-.1-.01-.15a.31.31 0 0 0-.06-.13.345.345 0 0 0-.09-.12l-.08-.08c-.03-.02-.07-.04-.1-.06a.358.358 0 0 0-.11-.04c-.03-.01-.07-.01-.11-.02h-2.4c-.06.01-.13.02-.19.04-.06.03-.11.06-.16.1-.05.04-.09.09-.12.15s-.05.12-.06.18l-.67 4.14h3c.06-.01.13-.02.18-.04a.95.95 0 0 0 .17-.1c.05-.05.09-.1.12-.15.03-.06.05-.12.06-.18l.6-3.4c.02-.05.03-.1.03-.14zM71.85 9.34c.12.15.23.32.32.49.09.17.17.36.22.54a2.908 2.908 0 0 1 .12 1.17l-.53 2.86c-.06.31-.17.61-.33.88-.16.26-.37.5-.61.7-.24.2-.51.36-.81.46-.29.11-.6.16-.92.16h-3.67l-.26 1.4c-.01.05-.01.09-.01.13.01.04.01.08.03.12.01.04.02.08.04.12.02.03.04.07.07.1.02.03.05.06.08.08.03.02.06.04.1.06.03.02.07.03.11.04.03.01.07.02.11.02h4.93l-.33 1.87h-4.8c-.2 0-.4-.03-.6-.07-.2-.05-.39-.11-.58-.2-.18-.08-.35-.19-.52-.31-.16-.13-.3-.27-.44-.42a2.801 2.801 0 0 1-.55-1.03c-.05-.19-.08-.39-.09-.58 0-.2.01-.4.05-.59l1.19-6.8c.06-.31.18-.6.34-.87.16-.27.36-.51.6-.71a2.73 2.73 0 0 1 1.73-.62h2.87c.2 0 .41.02.6.07.2.04.39.11.58.2.18.08.36.19.52.31.16.12.3.26.44.42zm-1.74 1.47c0-.04-.01-.08-.02-.12a.612.612 0 0 0-.05-.12c-.01-.03-.04-.07-.06-.1a.647.647 0 0 0-.09-.08l-.09-.06a.487.487 0 0 0-.11-.04c-.04-.01-.07-.02-.11-.02h-2.4a.537.537 0 0 0-.35.14c-.05.04-.09.09-.12.15-.03.05-.06.11-.07.18l-.73 4.07h3.07c.06-.01.13-.02.18-.04a.95.95 0 0 0 .17-.1c.05-.05.09-.1.12-.15.03-.06.05-.12.06-.18l.6-3.4c.01-.04.01-.08 0-.13zM103 9.41c.11.15.22.32.3.5.09.17.15.35.2.54.06.19.09.38.11.58.01.19.01.39-.01.58l-1.27 6.8a2.7 2.7 0 0 1-.94 1.58c-.24.2-.51.35-.81.46-.29.11-.6.16-.92.16H96.8c-.21 0-.41-.03-.61-.07a2.97 2.97 0 0 1-1.09-.51c-.16-.13-.31-.27-.44-.42-.13-.15-.24-.31-.33-.48-.1-.18-.17-.36-.22-.55-.05-.19-.08-.39-.09-.58-.01-.2.01-.4.04-.59l.54-2.87c.05-.31.17-.6.33-.87s.36-.51.6-.71c.25-.2.52-.35.81-.46.3-.1.61-.16.92-.16h3.67l.27-1.4v-.12c0-.04-.01-.09-.02-.13-.01-.04-.03-.07-.05-.11-.02-.04-.04-.07-.06-.11-.03-.03-.06-.05-.09-.08l-.09-.06c-.04-.01-.07-.03-.11-.04-.04-.01-.08-.01-.11-.02h-4.14l.33-1.86h4c.21 0 .41.02.61.07.19.04.39.11.57.19.18.09.36.19.52.32.16.12.31.26.44.42zm-3.48 9.3c.06-.03.11-.06.16-.1.05-.04.09-.09.12-.15s.05-.12.07-.18l.73-4.07h-3.07c-.06 0-.13.02-.19.04-.06.03-.11.06-.16.1-.05.04-.09.09-.12.15s-.05.12-.06.18l-.6 3.4c-.01.04-.01.08 0 .12a.585.585 0 0 0 .06.24c.02.04.04.07.07.11.02.03.05.05.08.08.03.02.07.04.1.06.03.01.07.03.11.04.03.01.07.01.11.02h2.4c.06-.01.13-.02.19-.04z"/><path id="Layer" class="shp0" d="M85.72 10.81c.01-.07.04-.14.07-.21.04-.06.08-.12.14-.17.05-.05.11-.08.18-.11.07-.03.14-.04.21-.05h3.74l.33-1.93h-4.33c-.33 0-.64.06-.94.18-.3.11-.58.27-.83.47-.25.21-.46.45-.62.73-.17.27-.28.57-.35.89l-1.2 6.67c-.04.2-.05.4-.04.6.01.2.04.4.09.6.05.19.12.38.22.56.09.18.2.35.33.51.13.15.28.29.44.41.16.13.33.23.52.32.18.08.37.15.57.19.2.05.4.07.61.08h3.33l.33-1.87h-3.53c-.05 0-.09-.01-.13-.01a.495.495 0 0 1-.24-.11.392.392 0 0 1-.1-.08c-.02-.04-.04-.09-.06-.13-.02-.04-.03-.09-.04-.13l-.03-.14v-.14l1.33-7.13z"/><g id="Layer"><path id="Layer" class="shp0" d="m91.72 9.54-2.06 11.07h2.47l2.06-11.07h-2.47zM92.26 6.54l-.34 1.87h2.4l.4-1.87h-2.46z"/></g><path id="Layer" class="shp0" d="M112.67 9.34c-.13-.16-.28-.3-.44-.42-.16-.12-.33-.23-.52-.31a2.27 2.27 0 0 0-.57-.2c-.2-.05-.4-.07-.6-.07h-2.87c-.31 0-.63.05-.92.16-.3.1-.57.26-.81.46a2.7 2.7 0 0 0-.94 1.58l-1.8 10.01h2.4l1.8-9.88c.01-.06.03-.12.06-.18.03-.05.08-.1.12-.15a.95.95 0 0 1 .17-.1c.06-.02.12-.03.18-.04l2.4.01c.04 0 .08 0 .12.01.03.01.07.03.1.04.04.02.07.04.1.07.03.02.06.05.08.07.03.04.05.07.07.11.02.04.03.08.05.12.01.04.01.08.02.12v.12l-1.74 9.68h2.4l1.61-9.01c.06-.19.09-.38.1-.58.01-.19 0-.39-.04-.58a2.2 2.2 0 0 0-.2-.56c-.09-.17-.2-.33-.33-.48z"/><path id="Layer" fill-rule="evenodd" class="shp0" d="M122.28 9.34c.12.15.22.32.31.49.08.18.15.36.2.55.06.19.09.38.1.58.02.19.01.39-.01.58l-.54 2.86c-.06.31-.17.61-.33.88-.16.26-.36.5-.61.7-.24.2-.51.36-.81.46-.29.11-.6.16-.91.16h-3.67l-.27 1.4c0 .05-.01.09 0 .13 0 .04.01.08.02.12.01.04.03.08.05.12.01.03.04.07.06.1.03.03.06.06.09.08l.09.06c.04.02.07.03.11.04.04.01.07.02.11.02h4.94l-.33 1.87h-4.81a2.75 2.75 0 0 1-1.17-.27c-.19-.08-.36-.19-.52-.31-.16-.13-.31-.27-.44-.42-.13-.15-.24-.31-.33-.49-.1-.17-.17-.35-.22-.54-.05-.19-.08-.39-.09-.58-.01-.2 0-.4.04-.59l1.27-6.8a2.7 2.7 0 0 1 .94-1.58c.24-.2.51-.36.81-.46.29-.11.6-.16.92-.16h2.86c.21 0 .41.02.61.07.19.04.39.11.57.2a2.748 2.748 0 0 1 .96.73zm-1.94 1.13a.304.304 0 0 0-.08-.08.88.88 0 0 0-.1-.06c-.03-.02-.07-.03-.1-.04-.04-.01-.08-.02-.12-.02h-2.4c-.06 0-.12.02-.18.04s-.12.06-.17.1c-.04.04-.09.09-.12.15-.03.05-.05.11-.06.18l-.73 4.07h3.06c.07-.01.13-.02.19-.04.06-.03.12-.06.16-.1.05-.05.09-.1.12-.15a.45.45 0 0 0 .07-.18l.6-3.4c.06-.27 0-.4-.14-.47z"/><path id="Layer" class="shp0" d="M126.55 10.81c.01-.07.03-.14.07-.21a.7.7 0 0 1 .13-.17c.06-.05.12-.08.19-.11.06-.03.14-.04.21-.05h2.53l.34-1.93h-3l.26-1.87h-2.4l-1.67 9.07-.33 1.74c-.04.2-.05.4-.04.6.01.2.04.4.09.6.05.19.12.38.22.56.09.18.2.35.33.5.13.16.28.3.44.42.16.13.33.23.52.32.18.08.37.15.57.19.2.05.4.07.6.07h2.87l.34-1.86h-3.07c-.05 0-.09-.01-.13-.01a.495.495 0 0 1-.13-.04c-.04-.02-.08-.04-.11-.07a.392.392 0 0 1-.1-.08c-.02-.04-.04-.09-.06-.13-.02-.04-.03-.09-.04-.13l-.03-.14v-.14l1.4-7.13z"/></g><g id="Layer"><path id="Layer" class="shp0" d="m15.81 12.74 15.68-4.27L33.02 0 16.48 7.2c-.57.25-1.16.47-1.75.66-.6.19-1.2.36-1.81.48-.61.13-1.23.23-1.85.3-.62.06-1.24.1-1.87.1h-2l-2 4.67h5.87c.4-.01.8-.02 1.2-.05.4-.04.8-.08 1.19-.13.4-.06.79-.13 1.18-.21.4-.08.78-.17 1.17-.28zM2.67 19.41h11.47l15.28.8 1.53-8.4-15.74 2.87-.8.12c-.26.03-.53.06-.79.08-.27.03-.54.04-.81.05-.27.01-.53.02-.8.01H4.54l-1.87 4.47zM11.94 20.95H2l-2 4.67h10.47c.69-.01 1.38.02 2.07.07.68.05 1.37.12 2.05.22a27.789 27.789 0 0 1 4.02.91l8.94 2.73 1.07-6.07-12.14-2.13a22.1 22.1 0 0 0-2.26-.3c-.38-.04-.76-.06-1.14-.08-.38-.02-.76-.02-1.14-.02z"/></g></g></g></svg>